<?xml version="1.0" encoding="UTF-8"?>
<svg data-bbox="0.11 1.548 111.89 95.82" xmlns="http://www.w3.org/2000/svg" width="114" viewBox="0 0 114 98" height="98" data-type="color">
    <g>
        <path d="M7.298 52.013c2.128 0 4.257.008 6.386-.01.41-.002.586.084.627.532.065.646.275 1.28.326 1.926.038.573.288.613.77.552 2.192-.262 4.392-.473 6.586-.746.57-.07.673.128.66.629-.018.701-.215 1.37-.3 2.058-.061.493.147.6.568.504.183-.042.36-.1.545-.149.774-.21.984-.07 1.134.705.078.407-.026.647-.443.83a283.425 283.425 0 0 0-10.838 4.932A663.133 663.133 0 0 0 4.562 68.1c-.359.178-.504.153-.664-.242C1.918 62.988.693 57.947.35 52.695c-.035-.51.023-.716.63-.7 2.105.045 4.212.018 6.318.018" fill="#184897" data-color="1"/>
        <path d="M42.454 1.942c.37-.073.64.06.697.746.18 2.137.439 4.27.708 6.396.061.495-.143.61-.543.683-1.032.184-2.09.218-3.11.496-.6.164-.924.45-.764 1.11.133.544-.12.792-.644.918-.816.194-1.629.427-2.418.703-.44.151-.695.106-.856-.36-.323-.931-.685-1.848-1-2.782-.137-.404-.334-.554-.732-.337-.035.016-.082.015-.122.028-1.316.429-1.345.483-.83 1.774.804 2.03 1.589 4.069 2.426 6.084.228.543.072.826-.389 1.051a4.22 4.22 0 0 1-.464.197c-.54.188-.704.522-.477 1.07.233.57.09.974-.513 1.266-.828.401-1.624.882-2.421 1.35-.257.149-.399.17-.581-.12-2.671-4.183-5.345-8.36-8.04-12.527-.257-.398-.006-.517.225-.689 1.561-1.164 3.29-2.026 5.062-2.804 4.187-1.838 8.483-3.33 13.01-4.071.52-.087 1.048-.109 1.776-.182" fill="#184897" data-color="1"/>
        <path d="M48.443 90.81c0-2.77.01-4.835-.01-6.898-.005-.485.17-.712.658-.66.633.063.786-.254.752-.836-.081-1.335-.118-1.193 1.092-1.367.436-.061.886-.057 1.314-.157.628-.15.897.12.987.693.024.167.064.33.093.497.136.759.217.844.945.63.474-.142.645 0 .723.443.047.29.2.568.213.855.03.739.508.874 1.103.88.587.008 1.177.026 1.768.014.472-.007.725.199.862.654.245.8.313.818 1.127.58.664-.2 1.331-.392 1.993-.596.27-.085.427-.087.56.252a501.41 501.41 0 0 0 3.035 7.538c.171.41-.04.523-.308.673-1.404.79-2.947 1.222-4.49 1.623-3.425.893-6.889 1.587-10.436 1.702-2.003.063-1.646.248-1.762-1.551-.12-1.889-.17-3.783-.219-4.968" fill="#184897" data-color="1"/>
        <path d="M57.16 2.516a46.749 46.749 0 0 1 7.201 1.961c3.556 1.285 6.897 2.993 10.06 5.06.334.214.39.367.148.71a338.562 338.562 0 0 0-3.779 5.598c-.217.32-.404.328-.715.191-.915-.39-1.694-1.016-2.569-1.476-.812-.427-.812-.43-1.24.372-.64 1.207-1.287 2.41-1.914 3.623-.145.288-.265.34-.568.193-1.967-.96-3.98-1.811-6.083-2.43-.243-.069-.354-.196-.276-.454.012-.04.018-.083.03-.122.49-1.77.471-1.433-1.237-1.91-.101-.028-.206-.033-.312-.055-1.05-.213-1.055-.215-.887-1.31.492-3.204 1.182-6.368 1.799-9.545.03-.17-.034-.533.342-.406" fill="#184897" data-color="1"/>
        <path d="M77.25 87.38c-.112.086-.212.164-.308.24-2.724 2.148-5.658 3.94-8.86 5.29-.4.173-.557.085-.738-.313a3631.733 3631.733 0 0 0-8.35-18.567c-.175-.385-.07-.588.21-.778.419-.28.533-.586.215-1.041-.256-.353-.15-.648.257-.867.596-.313 1.181-.65 1.743-1.023.336-.22.516-.164.753.145.544.703.565.699 1.314.193.465-.31.77-.28 1.144.211 4.072 5.346 8.165 10.672 12.255 16.003.115.149.22.306.365.506" fill="#184897" data-color="1"/>
        <path d="M5.706 50.367c-1.703 0-3.412-.002-5.116.004-.298 0-.5.018-.478-.415.246-5.228.811-10.403 2.522-15.39.194-.566.377-.668.96-.46a532.382 532.382 0 0 0 9.352 3.219c.436.149.55.326.414.762-.292.92-.537 1.857-.82 2.781-.18.58-.08.982.595 1.08.571.085.77.322.651.964-.272 1.488-.458 2.994-.63 4.497-.06.5-.385.5-.71.526-.895.069-.928.093-.897.995a.786.786 0 0 1 .003.06c.035 1.083.035 1.125-1.046 1.152-1.599.042-3.2.012-4.797.012-.003.07-.003.141-.003.213" fill="#184897" data-color="1"/>
        <path d="M46.973 85.82c-.105 3.579-.105 7.158-.077 10.737.007.506-.169.647-.616.68-1.313.099-2.608-.055-3.902-.206-2.047-.239-4.077-.574-6.062-1.168-.588-.178-.846-.427-.668-1.11.681-2.642 1.387-5.278 2.254-7.866.164-.5.387-.571.854-.45 1.48.395 1.507.386 1.844-1.106.392-1.74.736-3.493 1.116-5.241.162-.729.315-.855 1.04-.616.647.214.857.005.936-.607.17-1.332.4-2.66.548-3.997.065-.574.338-.753.857-.702h.06c1.979.138 1.979.138 1.979 2.123v9.532c-.055 0-.108-.003-.163-.003" fill="#184897" data-color="1"/>
        <path d="M26.646 36.09c-.143.287-.266.555-.407.813-.458.829-.904 1.674-1.17 2.578-.186.625-.398.7-.993.475-5.85-2.217-11.716-4.403-17.577-6.598-.883-.33-1.768-.669-2.66-.982-.336-.118-.395-.253-.247-.593 1.101-2.503 2.252-4.975 3.705-7.3.238-.382.384-.402.754-.17 6.051 3.806 12.12 7.596 18.174 11.392.157.099.417.135.421.385" fill="#184897" data-color="1"/>
        <path d="M19.751 71.139c-1.146.865-1.276 1.917-.959 3.118.47 1.772.718 3.554.01 5.327-.106.272.069.333.205.44.48.378.954.765 1.447 1.125.314.223.39.376.093.713a129.535 129.535 0 0 0-3.148 3.705c-.269.329-.415.316-.726.054-4.034-3.465-7.335-7.53-9.983-12.131-.587-1.017-1.104-2.08-1.681-3.102-.193-.342-.127-.484.2-.67 1.362-.755 2.812-1.322 4.199-2.02.332-.166.523-.001.584.241.28 1.09.997 1.165 1.973 1.07 1.114-.112 2.137.36 3.1.913.635.369 1.265.753 1.858 1.187.421.305.828.356 1.3.197.454-.153.915-.299 1.528-.167" fill="#184897" data-color="1"/>
        <path d="M30.839 78.674c-.083.142-.166.291-.249.435-1.243 2.1-2.464 4.212-3.74 6.29-.304.498-.176.733.241 1.001.899.589 1.084.545 1.549-.417.053-.117.099-.235.159-.344.414-.775.572-.827 1.335-.422 1.746.931 3.606 1.594 5.45 2.3.4.153.488.29.346.718-.711 2.154-1.306 4.34-2.097 6.468-.101.281-.18.454-.559.311-4.416-1.675-8.683-3.63-12.624-6.258a12.608 12.608 0 0 1-1.866-1.501c-.245-.242-.26-.417-.043-.689a2474.88 2474.88 0 0 0 8.047-10.225c.239-.303.382-.323.697-.098.987.717 2.01 1.388 3.012 2.086.128.09.309.142.342.345" fill="#184897" data-color="1"/>
        <path d="M20.644 10.282c.165.02.218.147.288.248 1.963 2.812 3.92 5.63 5.891 8.437.182.257.113.401-.06.597-.912 1.017-1.83 2.032-2.72 3.071-.236.276-.398.2-.627.04-.386-.27-.653-.655-.956-1.004-.297-.345-.555-.378-.952-.094-1.56 1.12-3.007 2.374-4.402 3.686-.386.363-.66.344-1.02.058-.33-.26-.67-.51-1.008-.762-.266-.202-.49-.213-.769.035-.417.367-.785 1.01-1.301.982-.472-.026-.92-.54-1.374-.843-.907-.61-1.805-1.234-2.724-1.83-.32-.21-.409-.355-.154-.716 3.196-4.533 6.992-8.467 11.536-11.662.12-.086.244-.168.352-.243" fill="#184897" data-color="1"/>
        <path d="M48.581 1.55c2.065.026 4.108.328 6.156.555.373.041.43.212.379.538-.566 3.767-1.13 7.534-1.678 11.303-.058.39-.224.518-.6.543-.65.043-1.298.135-1.945.216-.389.046-.607.254-.707.666a36.12 36.12 0 0 0-.729 3.649c-.061.42-.246.617-.615.774-.779.33-1.606.482-2.412.727-.304.092-.39.004-.41-.31-.153-2.522-.324-5.04-.493-7.562-.224-3.402-.439-6.805-.673-10.205-.033-.424.01-.626.513-.684 1.067-.12 2.138-.23 3.214-.21" fill="#184897" data-color="1"/>
        <path d="M80.568 29.348c-.217-.02-.287-.223-.388-.364-.341-.48-.675-.877-1.297-.353-.208.17-.44.097-.6-.127-.604-.814-1.202-1.628-1.818-2.43-.196-.257-.094-.443.093-.594.541-.428.45-.863-.01-1.246-.53-.442-.442-.814.015-1.228.712-.652 1.403-1.332 2.133-1.967.363-.312.332-.524.02-.859-1.594-1.716-3.358-3.246-5.212-4.668-.356-.272-.438-.428-.139-.818a97.29 97.29 0 0 0 2.567-3.52c.229-.324.374-.333.689-.1a47.322 47.322 0 0 1 11.813 12.762c.14.22.367.4-.033.644-2.542 1.565-5.071 3.152-7.601 4.733-.073.045-.148.085-.232.135" fill="#184897" data-color="1"/>
        <path d="M77.289 74.06c.378.158.658.383.925.62 1.224 1.065 1.23 1.074 2.4.054.272-.241.481-.308.816-.075 1.546 1.056 2.982 2.26 4.485 3.374.319.235.174.41.036.621-.814 1.21-1.78 2.294-2.77 3.355-1.295 1.384-2.617 2.734-4.135 3.887-.366.274-.586.29-.91-.11a486.564 486.564 0 0 0-5.393-6.512c-.265-.317-.306-.484.042-.79 1.461-1.272 2.813-2.659 4.123-4.086.117-.13.214-.31.381-.337" fill="#184897" data-color="1"/>
        <path d="M56.6 44.353v-7.707h1.017v6.79h3.796v.917z" fill="#4e4f50" data-color="2"/>
        <path d="M62.072 40.596c0-1.276.347-2.28 1.031-3.002.688-.722 1.573-1.085 2.66-1.085.713 0 1.353.171 1.924.51a3.31 3.31 0 0 1 1.305 1.422c.301.607.451 1.296.451 2.065 0 .78-.158 1.48-.472 2.097a3.24 3.24 0 0 1-1.34 1.4 3.839 3.839 0 0 1-1.87.475c-.728 0-1.375-.177-1.945-.525a3.339 3.339 0 0 1-1.298-1.433 4.307 4.307 0 0 1-.446-1.924zm1.054.02c0 .925.252 1.656.748 2.19.5.533 1.126.8 1.878.8.766 0 1.401-.27 1.897-.809.495-.538.744-1.304.744-2.293 0-.626-.107-1.173-.32-1.64a2.429 2.429 0 0 0-.93-1.086 2.526 2.526 0 0 0-1.374-.386c-.72 0-1.342.248-1.864.744-.52.494-.78 1.32-.78 2.48z" fill="#4e4f50" data-color="2"/>
        <path d="M70.462 44.353v-7.707h2.887c.587 0 1.059.08 1.413.232.354.158.632.397.835.72.198.323.302.662.302 1.013 0 .33-.09.638-.273.929-.178.289-.45.524-.812.702.47.137.832.37 1.085.7.25.331.376.72.376 1.17 0 .363-.076.7-.229 1.009-.151.313-.339.55-.563.72a2.365 2.365 0 0 1-.844.382c-.339.087-.75.13-1.24.13h-2.937zm1.022-4.48h1.656c.45 0 .775-.028.97-.088.258-.078.451-.203.58-.382.132-.176.2-.398.2-.667a1.23 1.23 0 0 0-.184-.671.924.924 0 0 0-.525-.397c-.225-.07-.613-.107-1.166-.107h-1.531zm0 3.564H73.4c.332 0 .561-.012.693-.037.238-.041.43-.111.59-.21a1.1 1.1 0 0 0 .389-.427c.1-.188.152-.405.152-.651 0-.286-.074-.536-.228-.748a1.203 1.203 0 0 0-.62-.446c-.26-.086-.634-.128-1.122-.128h-1.772v2.647z" fill="#4e4f50" data-color="2"/>
        <path d="m76.6 44.353 2.956-7.707h1.106l3.15 7.707h-1.16l-.892-2.336h-3.237l-.842 2.336zm2.212-3.165h2.628l-.808-2.138a20.085 20.085 0 0 1-.552-1.606c-.1.502-.238.997-.415 1.486z" fill="#4e4f50" data-color="2"/>
        <path d="M84.327 44.353v-7.707h1.02v6.79h3.792v.917z" fill="#4e4f50" data-color="2"/>
        <path d="m48.178 52.366.966-.083c.045.385.151.7.316.947.165.249.424.448.77.6.351.153.742.228 1.179.228.38 0 .725-.056 1.021-.173.295-.115.516-.274.663-.474a1.12 1.12 0 0 0 .215-.66.99.99 0 0 0-.21-.63c-.137-.18-.365-.33-.683-.452-.205-.081-.661-.205-1.365-.374-.706-.171-1.2-.33-1.483-.482-.368-.194-.643-.433-.824-.72a1.769 1.769 0 0 1-.27-.96c0-.39.11-.754.33-1.093.22-.34.54-.596.963-.771a3.641 3.641 0 0 1 1.411-.263c.57 0 1.074.091 1.506.275.436.185.77.456 1.004.813.234.357.362.761.378 1.214l-.977.074c-.053-.482-.228-.846-.533-1.093-.299-.246-.744-.37-1.333-.37-.616 0-1.06.115-1.34.34-.282.225-.422.495-.422.814 0 .277.1.504.299.683.194.177.702.36 1.528.547.823.186 1.392.35 1.695.49.452.206.78.468.992.785.217.316.32.68.32 1.091 0 .412-.115.796-.349 1.157-.235.364-.57.645-1.01.846a3.51 3.51 0 0 1-1.482.302c-.693 0-1.275-.103-1.747-.304a2.458 2.458 0 0 1-1.106-.918 2.61 2.61 0 0 1-.422-1.386z" fill="#4e4f50" data-color="2"/>
        <path d="M55.489 54.846v-7.704h1.02v3.153h3.995v-3.153h1.02v7.704h-1.02v-3.637H56.51v3.637z" fill="#4e4f50" data-color="2"/>
        <path d="m62.136 54.846 2.958-7.704H66.2l3.148 7.704h-1.16l-.894-2.332H64.06l-.842 2.332zm2.212-3.163h2.626l-.804-2.139c-.25-.647-.435-1.18-.552-1.603-.1.5-.24.995-.416 1.484z" fill="#4e4f50" data-color="2"/>
        <path d="M69.904 54.846v-7.704h2.906c.511 0 .9.024 1.172.074.376.063.695.183.948.359.257.177.462.425.62.743.155.32.234.67.234 1.052 0 .654-.21 1.21-.627 1.663-.416.454-1.169.68-2.256.68h-1.975v3.133h-1.022zm1.022-4.047h1.988c.656 0 1.124-.12 1.403-.365.277-.246.414-.589.414-1.032 0-.323-.083-.595-.246-.825a1.138 1.138 0 0 0-.64-.452c-.175-.047-.49-.07-.954-.07h-1.965V50.8z" fill="#4e4f50" data-color="2"/>
        <path d="M76.858 54.846v-7.704h5.571v.913h-4.551v2.346h4.256v.914h-4.256v2.617h4.731v.914z" fill="#4e4f50" data-color="2"/>
        <path d="m90.96 52.366.967-.083c.044.385.153.7.316.947.165.249.422.448.771.6.349.153.743.228 1.175.228.387 0 .73-.056 1.022-.173.298-.115.518-.274.662-.474a1.11 1.11 0 0 0 .219-.66c0-.24-.072-.451-.21-.63-.137-.18-.364-.33-.686-.452-.204-.081-.66-.205-1.364-.374-.705-.171-1.197-.33-1.482-.482-.367-.194-.643-.433-.822-.72a1.744 1.744 0 0 1-.271-.96c0-.39.108-.754.327-1.093.22-.34.542-.596.963-.771a3.66 3.66 0 0 1 1.412-.263c.571 0 1.073.091 1.505.275.438.185.773.456 1.006.813.234.357.36.761.375 1.214l-.977.074c-.05-.482-.227-.846-.53-1.093-.298-.246-.744-.37-1.336-.37-.613 0-1.06.115-1.339.34-.28.225-.42.495-.42.814 0 .277.099.504.298.683.193.177.704.36 1.527.547.826.186 1.39.35 1.698.49.448.206.777.468.992.785.215.316.32.68.32 1.091 0 .412-.117.796-.35 1.157-.235.364-.573.645-1.01.846a3.514 3.514 0 0 1-1.48.302c-.696 0-1.28-.103-1.749-.304a2.458 2.458 0 0 1-1.107-.918 2.628 2.628 0 0 1-.422-1.386z" fill="#4e4f50" data-color="2"/>
        <path d="m54.011 62.637 1.023.257c-.217.838-.6 1.475-1.157 1.915-.555.44-1.231.66-2.036.66-.83 0-1.505-.17-2.025-.507-.521-.336-.918-.828-1.19-1.471a5.217 5.217 0 0 1-.407-2.064c0-.8.154-1.502.46-2.1a3.16 3.16 0 0 1 1.307-1.36 3.819 3.819 0 0 1 1.87-.465c.77 0 1.416.195 1.942.587.523.393.891.946 1.097 1.656l-1.01.237c-.18-.56-.436-.969-.774-1.225-.34-.256-.766-.385-1.28-.385-.59 0-1.087.14-1.482.426a2.266 2.266 0 0 0-.836 1.143c-.162.48-.242.974-.242 1.481 0 .656.095 1.226.286 1.716.191.49.488.854.891 1.096.405.242.841.361 1.31.361.569 0 1.054-.163 1.449-.494.397-.33.664-.816.804-1.464z" fill="#4e4f50" data-color="2"/>
        <path d="M55.737 61.587c0-1.277.342-2.277 1.03-3.003.686-.723 1.573-1.082 2.658-1.082.71 0 1.355.17 1.925.508a3.338 3.338 0 0 1 1.306 1.419c.3.608.448 1.3.448 2.069 0 .78-.156 1.477-.472 2.096a3.22 3.22 0 0 1-1.34 1.4 3.823 3.823 0 0 1-1.873.474c-.723 0-1.371-.175-1.943-.526a3.361 3.361 0 0 1-1.299-1.434 4.318 4.318 0 0 1-.44-1.92zm1.05.018c0 .929.249 1.657.748 2.19.5.536 1.129.801 1.88.801.768 0 1.4-.268 1.895-.806.495-.54.742-1.304.742-2.295 0-.626-.104-1.173-.315-1.64a2.45 2.45 0 0 0-.931-1.086 2.54 2.54 0 0 0-1.375-.384 2.6 2.6 0 0 0-1.862.742c-.521.496-.783 1.32-.783 2.478z" fill="#4e4f50" data-color="2"/>
        <path d="M64.125 65.343v-7.705h1.533l1.834 5.455c.167.51.29.89.37 1.141.087-.28.225-.69.412-1.236l1.86-5.36h1.369v7.704h-.987v-6.444l-2.252 6.444h-.918l-2.236-6.56v6.56h-.985z" fill="#4e4f50" data-color="2"/>
        <path d="M72.845 65.343v-7.705h1.533l1.832 5.455c.17.51.293.89.37 1.141.09-.28.227-.69.414-1.236l1.859-5.36h1.37v7.704h-.989v-6.444l-2.25 6.444h-.918l-2.234-6.56v6.56h-.987z" fill="#4e4f50" data-color="2"/>
        <path d="M86.66 57.637h1.02v4.45c0 .773-.087 1.388-.263 1.842a2.227 2.227 0 0 1-.947 1.11c-.459.288-1.053.43-1.8.43-.72 0-1.31-.124-1.77-.373a2.14 2.14 0 0 1-.98-1.077c-.195-.473-.295-1.115-.295-1.932v-4.45h1.02v4.442c0 .666.061 1.158.185 1.474.127.318.34.564.641.735.302.171.675.256 1.109.256.748 0 1.284-.17 1.603-.51.318-.338.477-.99.477-1.955z" fill="#4e4f50" data-color="2"/>
        <path d="M89.121 65.343v-7.705h1.045l4.054 6.05v-6.05h.976v7.705H94.15l-4.05-6.051v6.05z" fill="#4e4f50" data-color="2"/>
        <path d="M96.836 65.343v-7.705h1.019v7.705z" fill="#4e4f50" data-color="2"/>
        <path d="M101.364 65.343v-6.79h-2.54v-.915h6.107v.914h-2.546v6.79z" fill="#4e4f50" data-color="2"/>
        <path d="M107.9 65.343v-3.264l-2.975-4.441h1.223l1.523 2.335c.283.432.548.87.793 1.31.24-.414.525-.874.85-1.38l1.498-2.265H112l-3.08 4.441v3.264z" fill="#4e4f50" data-color="2"/>
        <path d="M53.74 36.963c.755.39 1.218 1.073 1.39 2.05h-1.04c-.125-.545-.38-.945-.772-1.194-.386-.25-.878-.371-1.471-.371-.7 0-1.293.255-1.77.778-.482.516-.72 1.288-.72 2.315 0 .887.194 1.609.596 2.168.394.558 1.04.837 1.933.837.687 0 1.256-.198 1.707-.588.444-.393.679-1.026.689-1.899h-2.426v-.839h3.397v3.995h-.671l-.254-.96c-.349.376-.658.635-.928.781-.455.25-1.026.378-1.727.378-.906 0-1.68-.286-2.329-.861-.707-.717-1.063-1.704-1.063-2.956s.345-2.245 1.039-2.984c.66-.704 1.508-1.056 2.552-1.056.721 0 1.34.137 1.868.406" fill="#4e4f50" data-color="2"/>
        <path d="M83.8 47.155h3.672c.604 0 1.102.085 1.496.256.747.324 1.115.925 1.115 1.804 0 .455-.096.83-.297 1.12a2.166 2.166 0 0 1-.84.701c.318.121.556.281.716.476.16.199.246.52.264.964l.041 1.023c.009.29.033.507.076.648.066.243.18.398.35.465v.175h-1.339a.786.786 0 0 1-.09-.257 4.919 4.919 0 0 1-.054-.6l-.07-1.272c-.025-.501-.213-.833-.57-1.005-.203-.092-.517-.142-.954-.142H84.89v3.276H83.8zm3.553 3.498c.498 0 .895-.099 1.187-.293.289-.194.432-.543.432-1.05 0-.542-.201-.914-.613-1.11-.217-.103-.502-.156-.867-.156H84.89v2.61z" fill="#4e4f50" data-color="2"/>
    </g>
</svg>
